# xmcd CD database file
#
# Track frame offsets:
#	150
#	18500
#	38217
#	59800
#	75902
#	98462
#	114257
#	133215
#	154062
#	173810
#	190485
#	205347
#	221365
#	239202
#
# Disc length: 3450 seconds
#
# Revision: 0
# Processed by: cddbd v1.5.1PL0 Copyright (c) Steve Scherf et al.
# Submitted via: CDex 1.51
#
DISCID=c20d780e
DTITLE=Sólo Saxofón - Sólo Saxofón
DYEAR=2003
DGENRE=Jazz
TTITLE0=Memories
TTITLE1=I just can stop loving you
TTITLE2=Greates love of all
TTITLE3=To all the girls I've loved before
TTITLE4=Song bird
TTITLE5=Against all odds
TTITLE6=Don't cry for me Argentina
TTITLE7=My way
TTITLE8=Never gonna let you go
TTITLE9=Love on the rocks
TTITLE10=The way we were
TTITLE11=Feelings
TTITLE12=Even the nights are better
TTITLE13=Just the way you are
EXTD=YEAR: 2003
EXTT0=
EXTT1=
EXTT2=
EXTT3=
EXTT4=
EXTT5=
EXTT6=
EXTT7=
EXTT8=
EXTT9=
EXTT10=
EXTT11=
EXTT12=
EXTT13=
PLAYORDER=
